<mxfile host="Electron" modified="2024-06-21T01:36:08.932Z" agent="Mozilla/5.0 (Windows NT 10.0; Win64; x64) AppleWebKit/537.36 (KHTML, like Gecko) draw.io/24.5.3 Chrome/124.0.6367.207 Electron/30.0.6 Safari/537.36" etag="EJKieizWrBg45Qu6QMf8" version="24.5.3" type="device">
  <diagram name="Page-1" id="AvLsPoYU9DnG-tsBDQSp">
    <mxGraphModel dx="1221" dy="725" grid="1" gridSize="10" guides="1" tooltips="1" connect="1" arrows="1" fold="1" page="1" pageScale="1" pageWidth="827" pageHeight="400" math="1" shadow="0">
      <root>
        <mxCell id="0" />
        <mxCell id="1" parent="0" />
        <mxCell id="5vA1G1oYRq41nmhq3ju5-3" style="edgeStyle=orthogonalEdgeStyle;rounded=0;orthogonalLoop=1;jettySize=auto;html=1;entryX=0;entryY=0.5;entryDx=0;entryDy=0;" parent="1" source="ogoglfJcI44DMrGjK-La-11" target="ogoglfJcI44DMrGjK-La-20" edge="1">
          <mxGeometry relative="1" as="geometry" />
        </mxCell>
        <mxCell id="ogoglfJcI44DMrGjK-La-11" value="Obtain filterbank response $$W_{ltvTD}$$" style="rounded=0;whiteSpace=wrap;html=1;" parent="1" vertex="1">
          <mxGeometry x="14" y="140" width="120" height="70" as="geometry" />
        </mxCell>
        <mxCell id="q6xxPJZVcyV6QZeXJ0kG-6" style="edgeStyle=orthogonalEdgeStyle;rounded=0;orthogonalLoop=1;jettySize=auto;html=1;entryX=0;entryY=0.75;entryDx=0;entryDy=0;" parent="1" source="ogoglfJcI44DMrGjK-La-13" target="ogoglfJcI44DMrGjK-La-14" edge="1">
          <mxGeometry relative="1" as="geometry" />
        </mxCell>
        <mxCell id="ogoglfJcI44DMrGjK-La-13" value="Calculate frame operator Gramian$$\Phi^H\Phi$$" style="rounded=0;whiteSpace=wrap;html=1;" parent="1" vertex="1">
          <mxGeometry x="384" y="212" width="120" height="70" as="geometry" />
        </mxCell>
        <mxCell id="q6xxPJZVcyV6QZeXJ0kG-9" style="edgeStyle=orthogonalEdgeStyle;rounded=0;orthogonalLoop=1;jettySize=auto;html=1;entryX=0;entryY=0.5;entryDx=0;entryDy=0;" parent="1" source="ogoglfJcI44DMrGjK-La-14" edge="1">
          <mxGeometry relative="1" as="geometry">
            <mxPoint x="761" y="177" as="targetPoint" />
          </mxGeometry>
        </mxCell>
        <mxCell id="ogoglfJcI44DMrGjK-La-14" value="Least square solution of the $$(\Phi^H\Phi)^{-1}\Phi^*_{p}$$" style="rounded=0;whiteSpace=wrap;html=1;" parent="1" vertex="1">
          <mxGeometry x="574" y="142" width="120" height="70" as="geometry" />
        </mxCell>
        <mxCell id="AOBaSeOex1EAf5kaxHh4-4" style="edgeStyle=orthogonalEdgeStyle;rounded=0;orthogonalLoop=1;jettySize=auto;html=1;entryX=0;entryY=0.5;entryDx=0;entryDy=0;" parent="1" source="ogoglfJcI44DMrGjK-La-20" target="ogoglfJcI44DMrGjK-La-13" edge="1">
          <mxGeometry relative="1" as="geometry" />
        </mxCell>
        <mxCell id="q6xxPJZVcyV6QZeXJ0kG-3" style="edgeStyle=orthogonalEdgeStyle;rounded=0;orthogonalLoop=1;jettySize=auto;html=1;entryX=0;entryY=0.5;entryDx=0;entryDy=0;" parent="1" source="ogoglfJcI44DMrGjK-La-20" target="q6xxPJZVcyV6QZeXJ0kG-1" edge="1">
          <mxGeometry relative="1" as="geometry" />
        </mxCell>
        <mxCell id="ogoglfJcI44DMrGjK-La-20" value="Forming frame operator $$\Phi$$" style="rounded=0;whiteSpace=wrap;html=1;" parent="1" vertex="1">
          <mxGeometry x="194" y="140" width="120" height="70" as="geometry" />
        </mxCell>
        <mxCell id="AOBaSeOex1EAf5kaxHh4-8" value="$$\Phi^+_{p}$$" style="text;html=1;strokeColor=none;fillColor=none;align=center;verticalAlign=middle;whiteSpace=wrap;rounded=0;" parent="1" vertex="1">
          <mxGeometry x="754" y="162" width="60" height="30" as="geometry" />
        </mxCell>
        <mxCell id="q6xxPJZVcyV6QZeXJ0kG-5" style="edgeStyle=orthogonalEdgeStyle;rounded=0;orthogonalLoop=1;jettySize=auto;html=1;entryX=0;entryY=0.25;entryDx=0;entryDy=0;" parent="1" source="q6xxPJZVcyV6QZeXJ0kG-1" target="ogoglfJcI44DMrGjK-La-14" edge="1">
          <mxGeometry relative="1" as="geometry" />
        </mxCell>
        <mxCell id="q6xxPJZVcyV6QZeXJ0kG-1" value="Chop last Hermitian transpose of repeating block of $$\Phi$$" style="rounded=0;whiteSpace=wrap;html=1;" parent="1" vertex="1">
          <mxGeometry x="384" y="70" width="120" height="80" as="geometry" />
        </mxCell>
        <mxCell id="q6xxPJZVcyV6QZeXJ0kG-4" value="$$\Phi^*_{p}$$" style="text;html=1;strokeColor=none;fillColor=none;align=center;verticalAlign=middle;whiteSpace=wrap;rounded=0;" parent="1" vertex="1">
          <mxGeometry x="504" y="80" width="60" height="30" as="geometry" />
        </mxCell>
      </root>
    </mxGraphModel>
  </diagram>
</mxfile>
